<?xml version="1.0" encoding="UTF-8"?>
<svg id="Capa_1" xmlns="http://www.w3.org/2000/svg" version="1.1" viewBox="0 0 35 35">
  <!-- Generator: Adobe Illustrator 29.5.1, SVG Export Plug-In . SVG Version: 2.1.0 Build 141)  -->
  <defs>
    <style>
      .st0 {
        fill: #272620;
      }
    </style>
  </defs>
  <g id="Capa_11">
    <g>
      <path class="st0" d="M11.98,23c-1.52,2.39-2.94,3.92-3.81,3.92s-.33,0-.44-.11c-.11-.22-.22-.44-.11-.66.11-.87,1.86-2.08,4.36-3.16h0Z"/>
      <path class="st0" d="M16.23,12.97c-.87-2.39-.77-4.14-.44-4.8.11-.22.33-.33.55-.33.55,0,.66.66.66,1.2-.11,1.31-.33,2.72-.77,3.92h0Z"/>
      <path class="st0" d="M17.11,17c.54.98,1.52,2.06,1.95,2.6-.18-.01-1.97.38-3.38.89.55-.98,1.2-2.83,1.42-3.49h.01Z"/>
      <path class="st0" d="M19.08,19.61h-.01s.02-.01.01,0Z"/>
      <path class="st0" d="M26.37,21.25c-.11.44-.66.87-1.64.66-1.2-.33-2.28-.87-3.16-1.64.77-.11,2.61-.33,3.92-.11.44.11.98.44.87,1.09h0Z"/>
      <path class="st0" d="M28.77.44H6.22C2.72.44,0,3.16,0,6.64v21.7c0,3.49,2.83,6.21,6.22,6.22h22.56c3.5,0,6.22-2.84,6.22-6.22V6.66c0-3.5-2.84-6.22-6.22-6.22h-.01ZM28.25,21.88c-.21.55-.75,1.2-2.28,1.2s-3.28-.31-5.67-2.5c-2.08.33-4.14.98-5.45,1.42-1.64,2.84-3.94,6-6.22,6s-1.09-.11-1.53-.55c-.44-.33-.66-.98-.55-1.53.33-1.97,4.14-3.7,5.89-4.36,1.3-2.28,2.39-5.22,3.05-7.19-1.2-2.72-1.53-5.33-.77-6.64.33-.55.87-.87,1.53-.87,1.74,0,2.39,1.63,2.39,3.27s-.44,3.6-.98,5.24c.44.66,1.52,2.39,3.05,3.92,1.08-.11,5.55-.87,7.19.87.44.44.64,1.2.36,1.72h-.01Z"/>
    </g>
  </g>
</svg>