<?xml version="1.0" encoding="UTF-8"?>
<svg id="Capa_1" xmlns="http://www.w3.org/2000/svg" version="1.1" viewBox="0 0 10 10">
  <!-- Generator: Adobe Illustrator 29.5.1, SVG Export Plug-In . SVG Version: 2.1.0 Build 141)  -->
  <defs>
    <style>
      .st0 {
        fill: #fcfed2;
      }
    </style>
  </defs>
  <g id="c">
    <g>
      <path class="st0" d="M9.98,4.04h-1.89v-.47h-.47v-.48h-.48v-.48h-.48c0-.08,0-.16,0-.24,0-.08,0-.16,0-.23h-3.8v.95h1.19c.2,0,.4,0,.59,0,.2,0,.39,0,.59,0v.47h-.47c0,.16,0,.32,0,.48h-.48v.47c-.16,0-.32,0-.48,0v.48h-.48v.48H0c-.02.12-.01,1.37,0,1.42.23.02,3.73,0,3.8-.01v-.46c.16,0,.32,0,.48,0v-.47h.94v.95h-.47v.48h-.47v.48h-.48v.47h-.47v.95c.16,0,.31,0,.47,0v.47h.47c0-.16,0-.31,0-.47h.47c0-.16,0-.32,0-.48h.48v-.47h.16c.05,0,.1,0,.16,0,.05,0,.1,0,.16-.01v-.47h.47v-.16c0-.05,0-.1,0-.16,0-.05,0-.1.01-.16h.47v-.47c.16,0,.32,0,.47,0,.01-.15,0-.89,0-.95h-.46c0-.08,0-.16,0-.24,0-.08,0-.16,0-.24h-.47v-.47c.16,0,.31,0,.47,0v-.47h.95v.47h2.37c.02-.1.01-.89,0-.95h0Z"/>
      <path class="st0" d="M7.62,3.09h0s0,0,0,0h0Z"/>
      <path class="st0" d="M7.15,2.62h.19c.06,0,.13,0,.19,0,.03,0,.05,0,.08,0v.47s0,0,.01,0h0s.02,0,.03,0h.87s.02,0,.03,0h0s0,0,.01,0v-.47s.06,0,.08,0c.06,0,.13,0,.19,0h.2c0-.16,0-.32,0-.48h.47v-.95h-.47v-.47c-.16,0-.32,0-.48,0V.24h-.95v.47c-.16,0-.32,0-.48,0v.47h-.47v.95h.47c.01.16,0,.32,0,.48h0,0Z"/>
      <path class="st0" d="M8.56,3.09h0s0,0,0,0Z"/>
    </g>
  </g>
</svg>