<?xml version="1.0" encoding="UTF-8"?>
<svg id="Capa_1" xmlns="http://www.w3.org/2000/svg" version="1.1" viewBox="0 0 35 35">
  <!-- Generator: Adobe Illustrator 29.5.1, SVG Export Plug-In . SVG Version: 2.1.0 Build 141)  -->
  <defs>
    <style>
      .st0 {
        fill-rule: evenodd;
      }

      .st0, .st1 {
        fill: #272620;
      }
    </style>
  </defs>
  <g id="Capa_11">
    <g>
      <path class="st0" d="M17.5.46C7.83.46,0,8.29,0,17.96s5.01,14.29,11.97,16.6c.88.16,1.2-.38,1.2-.84s-.01-1.8-.02-3.26c-4.87,1.06-5.9-2.06-5.9-2.06-.79-2.02-1.94-2.56-1.94-2.56-1.59-1.09.12-1.07.12-1.07,1.76.12,2.68,1.8,2.68,1.8,1.56,2.67,4.09,1.9,5.09,1.46.16-1.13.61-1.9,1.11-2.34-3.89-.44-7.97-1.94-7.97-8.65s.68-3.47,1.8-4.7c-.18-.44-.78-2.22.17-4.63,0,0,1.47-.47,4.81,1.79,1.39-.39,2.89-.58,4.38-.59,1.49,0,2.99.2,4.38.59,3.34-2.26,4.81-1.79,4.81-1.79.95,2.41.36,4.19.17,4.63,1.12,1.22,1.8,2.79,1.8,4.7,0,6.72-4.09,8.2-7.99,8.63.63.54,1.19,1.61,1.19,3.24,0,2.34-.02,4.22-.02,4.81s.31,1.01,1.2.84c6.95-2.32,11.96-8.87,11.96-16.6C35,8.29,27.17.46,17.5.46h0Z"/>
      <path class="st1" d="M6.63,25.58c-.04.09-.18.12-.3.05-.13-.05-.2-.18-.16-.26.04-.09.18-.12.3-.05.13.05.2.18.16.26h0Z"/>
      <path class="st1" d="M7.33,26.38c-.08.08-.25.04-.36-.08-.12-.12-.14-.29-.05-.36.09-.08.25-.04.36.08.12.12.14.28.05.36h0Z"/>
      <path class="st1" d="M8.03,27.38c-.11.08-.28,0-.39-.15-.11-.16-.11-.34,0-.42s.28,0,.39.15c.11.16.11.34,0,.42h0Z"/>
      <path class="st1" d="M8.97,28.35c-.1.11-.3.08-.45-.07s-.2-.34-.1-.44c.1-.11.3-.08.45.07s.2.34.1.44h0Z"/>
      <path class="st1" d="M10.27,28.92c-.04.14-.24.2-.44.14-.2-.06-.33-.22-.29-.36s.24-.21.44-.14c.2.06.33.22.29.36h0Z"/>
      <path class="st1" d="M11.71,29.02c0,.14-.16.27-.37.27s-.38-.11-.38-.25.16-.27.38-.27.38.11.38.25h-.01Z"/>
      <path class="st1" d="M13.04,28.8c.03.14-.12.29-.33.32-.21.04-.39-.05-.42-.19-.03-.14.12-.29.33-.33.21-.03.39.05.42.19h0Z"/>
    </g>
  </g>
</svg>