<?xml version="1.0" encoding="UTF-8"?>
<svg id="Capa_1" xmlns="http://www.w3.org/2000/svg" version="1.1" viewBox="0 0 35 35">
  <!-- Generator: Adobe Illustrator 29.5.1, SVG Export Plug-In . SVG Version: 2.1.0 Build 141)  -->
  <defs>
    <style>
      .st0 {
        fill: #272620;
      }
    </style>
  </defs>
  <g id="Capa_11">
    <g id="Layer_2">
      <g id="Surfaces">
        <g id="Drawing_Surface">
          <g id="Outline_no_shadow">
            <path class="st0" d="M14.22,11.87h-.03l-1.81,6.08h3.7l-1.87-6.08h0ZM14.22,11.87h-.03l-1.81,6.08h3.7l-1.87-6.08h0ZM28.79.44H6.2C2.77.44,0,3.21,0,6.64v21.73c0,3.42,2.77,6.2,6.2,6.2h22.6c3.42,0,6.2-2.77,6.2-6.2V6.64c0-3.42-2.77-6.2-6.2-6.2h0ZM21.43,24.54h-3.05c-.1.01-.21-.06-.23-.16l-1.2-3.47h-5.43l-1.11,3.42c-.03.13-.14.22-.28.21h-2.74c-.16,0-.21-.09-.16-.26l4.7-13.52c.04-.14.09-.31.14-.48.06-.31.09-.63.09-.95-.01-.08.04-.14.12-.16h3.78c.12,0,.18.04.19.12l5.32,15.02c.04.16,0,.23-.14.23h0ZM26.39,24.32c0,.16-.06.23-.19.23h-2.86c-.14,0-.22-.09-.22-.23v-11.23c0-.14.06-.21.19-.21h2.88c.13,0,.19.08.19.21v11.23h.01ZM26.09,11.15c-.33.35-.83.54-1.33.51-.48.01-.95-.18-1.3-.51-.33-.36-.51-.85-.5-1.34-.01-.5.18-.96.53-1.3.35-.33.81-.51,1.3-.51s1,.18,1.33.51c.32.35.5.81.48,1.3.01.5-.16.98-.51,1.34h0ZM14.19,11.87l-1.81,6.08h3.7l-1.87-6.08h-.03,0Z"/>
          </g>
        </g>
      </g>
    </g>
  </g>
</svg>