<?xml version="1.0" encoding="UTF-8"?>
<svg id="Capa_1" xmlns="http://www.w3.org/2000/svg" version="1.1" viewBox="0 0 30 30">
  <!-- Generator: Adobe Illustrator 29.5.1, SVG Export Plug-In . SVG Version: 2.1.0 Build 141)  -->
  <defs>
    <style>
      .st0 {
        fill: #272620;
      }
    </style>
  </defs>
  <g id="Capa_11">
    <g>
      <path class="st0" d="M15,2.7c4.01,0,4.48.02,6.06.09,1.63.08,3.32.45,4.51,1.64,1.2,1.2,1.56,2.87,1.64,4.51.07,1.58.09,2.06.09,6.06s-.02,4.48-.09,6.06c-.08,1.63-.46,3.33-1.64,4.51s-2.87,1.56-4.51,1.64c-1.58.07-2.06.09-6.06.09s-4.48-.02-6.06-.09c-1.61-.08-3.33-.46-4.51-1.64-1.2-1.2-1.56-2.88-1.64-4.51-.07-1.58-.09-2.06-.09-6.06s.02-4.48.09-6.06c.08-1.62.46-3.33,1.64-4.51,1.2-1.2,2.87-1.56,4.51-1.64,1.58-.07,2.06-.09,6.06-.09M15,0C10.93,0,10.41.02,8.81.09c-2.32.11-4.62.75-6.3,2.43C.84,4.2.19,6.5.09,8.81c-.07,1.6-.09,2.11-.09,6.19s.02,4.59.09,6.19c.11,2.31.76,4.62,2.43,6.3,1.68,1.68,3.98,2.32,6.3,2.43,1.6.07,2.11.09,6.19.09s4.59-.02,6.19-.09c2.32-.11,4.62-.75,6.3-2.43s2.32-3.98,2.43-6.3c.07-1.6.09-2.11.09-6.19s-.02-4.59-.09-6.19c-.11-2.32-.75-4.62-2.43-6.3C25.8.84,23.5.19,21.19.09,19.59.02,19.07,0,15,0Z"/>
      <path class="st0" d="M15,7.29c-4.25,0-7.71,3.45-7.71,7.71s3.45,7.71,7.71,7.71,7.71-3.45,7.71-7.71-3.45-7.71-7.71-7.71ZM15,20c-2.76,0-5-2.24-5-5s2.24-5,5-5,5,2.24,5,5-2.24,5-5,5h0Z"/>
      <circle class="st0" cx="23.01" cy="6.99" r="1.8"/>
    </g>
  </g>
</svg>