<?xml version="1.0" encoding="UTF-8"?>
<svg id="Capa_1" xmlns="http://www.w3.org/2000/svg" version="1.1" viewBox="0 0 40 40">
  <!-- Generator: Adobe Illustrator 29.5.1, SVG Export Plug-In . SVG Version: 2.1.0 Build 141)  -->
  <defs>
    <style>
      .st0 {
        fill: #272620;
      }
    </style>
  </defs>
  <g id="c">
    <g>
      <path class="st0" d="M39.95,16.58h-7.58v-1.89h-1.89v-1.93h-1.93v-1.93h-1.93v-1.89h-15.24v3.81h9.51v1.89h-1.89v1.93h-1.93v1.89h-1.93v1.93h-1.93v1.93H-.08c-.08.48-.04,5.5,0,5.7.92.08,14.96,0,15.24-.04v-1.85h1.93v-1.89h3.77v3.81h-1.89v1.93h-1.89v1.93h-1.93v1.89h-1.89v3.81h1.89v1.89h1.89v-1.89h1.89v-1.93h1.93v-1.89h1.28c.2,0,.4,0,.64-.04v-1.89h1.89v-1.28c0-.2,0-.4.04-.64h1.89v-1.89h1.89c.04-.6,0-3.57,0-3.81h-1.85v-1.93h-1.89v-1.89h1.89v-1.89h3.81v1.89h9.51c.08-.4.04-3.57,0-3.81h0v-.04Z"/>
      <path class="st0" d="M30.49,12.77h0Z"/>
      <path class="st0" d="M28.6,10.88h1.85v1.89h3.81v-1.89h1.89v-1.93h1.89v-3.81h-1.89v-1.89h-1.93v-1.93h-3.81v1.89h-1.93v1.89h-1.89v3.81h1.89c.04.64,0,1.28,0,1.93h0l.12.04Z"/>
      <path class="st0" d="M34.26,12.77h0Z"/>
    </g>
  </g>
</svg>