<?xml version="1.0" encoding="UTF-8"?>
<svg id="Capa_1" xmlns="http://www.w3.org/2000/svg" version="1.1" viewBox="0 0 30 30">
  <!-- Generator: Adobe Illustrator 29.5.1, SVG Export Plug-In . SVG Version: 2.1.0 Build 141)  -->
  <defs>
    <style>
      .st0 {
        fill: #272620;
      }
    </style>
  </defs>
  <g id="Capa_11">
    <path class="st0" d="M29.37,7.75c-.35-1.3-1.36-2.32-2.65-2.67-2.33-.63-11.7-.63-11.7-.63,0,0-9.36,0-11.7.63-1.29.35-2.3,1.37-2.64,2.67C.05,10.1.05,15,.05,15c0,0,0,4.9.63,7.25.35,1.3,1.36,2.32,2.65,2.67,2.33.63,11.7.63,11.7.63,0,0,9.36,0,11.7-.63,1.29-.35,2.3-1.37,2.65-2.67.63-2.35.63-7.25.63-7.25,0,0,0-4.9-.63-7.25h0ZM11.96,19.45v-8.91l7.83,4.45-7.83,4.45h0Z"/>
  </g>
</svg>